STARTFONT 2.1
FONT -Adobe-Helvetica-Medium-O-Narrow--17-120-100-100-P-69-ISO8859-1
SIZE 12 100 100
FONTBOUNDINGBOX 16 17 -2 -3

STARTPROPERTIES 26
_DEC_DEVICE_FONTNAMES "PS=Helvetica-Narrow-Oblique"
FONTNAME_REGISTRY ""
FAMILY_NAME "Helvetica"
FOUNDRY "Adobe"
WEIGHT_NAME "Medium"
SLANT "O"
SETWIDTH_NAME "Narrow"
ADD_STYLE_NAME ""
PIXEL_SIZE 17
POINT_SIZE 120
RESOLUTION_X 100
RESOLUTION_Y 100
SPACING "P"
AVERAGE_WIDTH 69
CHARSET_REGISTRY "ISO8859"
CHARSET_ENCODING "1"
CHARSET_COLLECTIONS "ASCII ISO8859-1 ADOBE-STANDARD"
FULL_NAME "Helvetica Narrow Oblique"
COPYRIGHT "Copyright (c) 1991 Adobe Systems, Inc."
CAP_HEIGHT 12
X_HEIGHT 9
WEIGHT 10
QUAD_WIDTH 8
DEFAULT_CHAR 0
FONT_DESCENT 3
FONT_ASCENT 14
ENDPROPERTIES

CHARS 190

STARTCHAR space
ENCODING 32
SWIDTH 228 0
DWIDTH 3 0
BBX 1 1 0 0
BITMAP
00
ENDCHAR

STARTCHAR exclam
ENCODING 33
SWIDTH 228 0
DWIDTH 4 0
BBX 3 12 1 0
BITMAP
20
20
20
40
40
40
40
80
80
00
80
80
ENDCHAR

STARTCHAR quotedbl
ENCODING 34
SWIDTH 291 0
DWIDTH 5 0
BBX 4 4 2 8
BITMAP
50
50
A0
A0
ENDCHAR

STARTCHAR numbersign
ENCODING 35
SWIDTH 456 0
DWIDTH 7 0
BBX 8 11 0 0
BITMAP
0A
0A
14
7F
14
2C
28
FE
28
50
50
ENDCHAR

STARTCHAR dollar
ENCODING 36
SWIDTH 456 0
DWIDTH 7 0
BBX 8 14 0 -2
BITMAP
04
0E
15
25
28
28
18
14
14
A4
A8
70
40
40
ENDCHAR

STARTCHAR percent
ENCODING 37
SWIDTH 729 0
DWIDTH 12 0
BBX 9 11 2 0
BITMAP
3080
4900
8A00
9200
6400
0800
1300
2480
2880
4900
8600
ENDCHAR

STARTCHAR ampersand
ENCODING 38
SWIDTH 547 0
DWIDTH 9 0
BBX 7 11 1 0
BITMAP
0C
12
22
24
18
30
4A
8A
84
8C
72
ENDCHAR

STARTCHAR quoteright
ENCODING 39
SWIDTH 182 0
DWIDTH 3 0
BBX 2 4 2 8
BITMAP
C0
40
40
80
ENDCHAR

STARTCHAR parenleft
ENCODING 40
SWIDTH 273 0
DWIDTH 4 0
BBX 5 15 1 -3
BITMAP
08
10
10
20
20
40
40
40
80
80
80
80
80
40
40
ENDCHAR

STARTCHAR parenright
ENCODING 41
SWIDTH 273 0
DWIDTH 4 0
BBX 5 15 -1 -3
BITMAP
10
10
08
08
08
08
08
10
10
10
20
20
40
40
80
ENDCHAR

STARTCHAR asterisk
ENCODING 42
SWIDTH 319 0
DWIDTH 5 0
BBX 4 4 2 8
BITMAP
20
F0
60
A0
ENDCHAR

STARTCHAR plus
ENCODING 43
SWIDTH 479 0
DWIDTH 8 0
BBX 6 7 1 0
BITMAP
10
10
10
FC
20
20
20
ENDCHAR

STARTCHAR comma
ENCODING 44
SWIDTH 228 0
DWIDTH 4 0
BBX 2 4 1 -2
BITMAP
C0
40
40
80
ENDCHAR

STARTCHAR minus
ENCODING 45
SWIDTH 479 0
DWIDTH 8 0
BBX 7 1 0 3
BITMAP
FE
ENDCHAR

STARTCHAR period
ENCODING 46
SWIDTH 228 0
DWIDTH 3 0
BBX 1 2 1 0
BITMAP
80
80
ENDCHAR

STARTCHAR slash
ENCODING 47
SWIDTH 228 0
DWIDTH 4 0
BBX 5 11 0 0
BITMAP
08
08
10
10
20
20
20
40
40
80
80
ENDCHAR

STARTCHAR zero
ENCODING 48
SWIDTH 456 0
DWIDTH 7 0
BBX 7 11 1 0
BITMAP
1C
22
22
42
42
44
84
84
88
88
70
ENDCHAR

STARTCHAR one
ENCODING 49
SWIDTH 456 0
DWIDTH 7 0
BBX 3 11 3 0
BITMAP
20
20
E0
40
40
40
40
80
80
80
80
ENDCHAR

STARTCHAR two
ENCODING 50
SWIDTH 456 0
DWIDTH 7 0
BBX 7 11 1 0
BITMAP
1C
26
42
42
04
08
30
40
80
80
F8
ENDCHAR

STARTCHAR three
ENCODING 51
SWIDTH 456 0
DWIDTH 7 0
BBX 7 11 1 0
BITMAP
1C
22
42
02
04
38
08
04
84
88
70
ENDCHAR

STARTCHAR four
ENCODING 52
SWIDTH 456 0
DWIDTH 7 0
BBX 6 11 1 0
BITMAP
04
0C
14
24
28
48
88
FC
10
10
10
ENDCHAR

STARTCHAR five
ENCODING 53
SWIDTH 456 0
DWIDTH 7 0
BBX 7 11 1 0
BITMAP
3E
20
20
40
78
44
04
04
88
88
70
ENDCHAR

STARTCHAR six
ENCODING 54
SWIDTH 456 0
DWIDTH 7 0
BBX 7 11 1 0
BITMAP
1C
22
22
40
78
44
84
84
88
88
70
ENDCHAR

STARTCHAR seven
ENCODING 55
SWIDTH 456 0
DWIDTH 7 0
BBX 6 11 2 0
BITMAP
FC
04
08
10
20
20
40
40
80
80
80
ENDCHAR

STARTCHAR eight
ENCODING 56
SWIDTH 456 0
DWIDTH 7 0
BBX 7 11 1 0
BITMAP
1C
22
42
42
24
38
48
84
84
88
70
ENDCHAR

STARTCHAR nine
ENCODING 57
SWIDTH 456 0
DWIDTH 7 0
BBX 7 11 1 0
BITMAP
1C
22
22
42
42
44
3C
04
88
88
70
ENDCHAR

STARTCHAR colon
ENCODING 58
SWIDTH 228 0
DWIDTH 3 0
BBX 2 9 1 0
BITMAP
40
40
00
00
00
00
00
80
80
ENDCHAR

STARTCHAR semicolon
ENCODING 59
SWIDTH 228 0
DWIDTH 3 0
BBX 3 11 0 -2
BITMAP
20
20
00
00
00
00
00
C0
40
40
80
ENDCHAR

STARTCHAR less
ENCODING 60
SWIDTH 479 0
DWIDTH 8 0
BBX 7 7 1 0
BITMAP
02
0C
30
C0
60
18
04
ENDCHAR

STARTCHAR equal
ENCODING 61
SWIDTH 479 0
DWIDTH 8 0
BBX 7 4 1 2
BITMAP
7E
00
00
FC
ENDCHAR

STARTCHAR greater
ENCODING 62
SWIDTH 479 0
DWIDTH 8 0
BBX 7 7 1 0
BITMAP
40
30
0C
06
18
60
80
ENDCHAR

STARTCHAR question
ENCODING 63
SWIDTH 456 0
DWIDTH 7 0
BBX 6 12 2 0
BITMAP
38
4C
84
84
08
10
20
40
40
00
80
80
ENDCHAR

STARTCHAR at
ENCODING 64
SWIDTH 832 0
DWIDTH 13 0
BBX 12 14 1 -2
BITMAP
03C0
0C20
1010
2010
4350
4C90
8890
9120
9120
9240
8D80
4000
6180
1E00
ENDCHAR

STARTCHAR A
ENCODING 65
SWIDTH 547 0
DWIDTH 9 0
BBX 8 12 0 0
BITMAP
06
06
0A
0A
12
12
22
3F
41
41
81
81
ENDCHAR

STARTCHAR B
ENCODING 66
SWIDTH 547 0
DWIDTH 8 0
BBX 9 12 0 0
BITMAP
3F00
2180
2080
2080
4100
7E00
4200
4100
8100
8100
8600
F800
ENDCHAR

STARTCHAR C
ENCODING 67
SWIDTH 592 0
DWIDTH 9 0
BBX 8 12 1 0
BITMAP
0E
31
21
41
40
80
80
80
82
82
44
38
ENDCHAR

STARTCHAR D
ENCODING 68
SWIDTH 592 0
DWIDTH 10 0
BBX 9 12 1 0
BITMAP
3E00
2100
2080
2080
4080
4080
4080
4100
8100
8200
8600
F800
ENDCHAR

STARTCHAR E
ENCODING 69
SWIDTH 547 0
DWIDTH 9 0
BBX 9 12 1 0
BITMAP
3F80
2000
2000
2000
4000
7E00
4000
4000
8000
8000
8000
FE00
ENDCHAR

STARTCHAR F
ENCODING 70
SWIDTH 501 0
DWIDTH 8 0
BBX 8 12 1 0
BITMAP
3F
20
20
20
40
7C
40
40
80
80
80
80
ENDCHAR

STARTCHAR G
ENCODING 71
SWIDTH 638 0
DWIDTH 9 0
BBX 9 12 1 0
BITMAP
0E00
3100
2080
4080
4000
8000
8F00
8100
8100
8200
4600
3A00
ENDCHAR

STARTCHAR H
ENCODING 72
SWIDTH 592 0
DWIDTH 10 0
BBX 9 12 1 0
BITMAP
2080
2080
2080
2080
4100
7F00
4100
4100
8200
8200
8200
8200
ENDCHAR

STARTCHAR I
ENCODING 73
SWIDTH 228 0
DWIDTH 4 0
BBX 3 12 1 0
BITMAP
20
20
20
20
40
40
40
40
80
80
80
80
ENDCHAR

STARTCHAR J
ENCODING 74
SWIDTH 410 0
DWIDTH 7 0
BBX 7 12 0 0
BITMAP
02
02
02
02
04
04
04
04
88
88
88
70
ENDCHAR

STARTCHAR K
ENCODING 75
SWIDTH 547 0
DWIDTH 9 0
BBX 10 12 1 0
BITMAP
2040
2080
2100
2200
4400
5800
6800
4400
8400
8200
8200
8300
ENDCHAR

STARTCHAR L
ENCODING 76
SWIDTH 456 0
DWIDTH 7 0
BBX 6 12 1 0
BITMAP
20
20
20
20
40
40
40
40
80
80
80
FC
ENDCHAR

STARTCHAR M
ENCODING 77
SWIDTH 683 0
DWIDTH 12 0
BBX 11 12 1 0
BITMAP
3060
3060
30A0
30A0
5140
5140
4A40
4A40
8C80
8C80
8880
8880
ENDCHAR

STARTCHAR N
ENCODING 78
SWIDTH 592 0
DWIDTH 10 0
BBX 9 12 1 0
BITMAP
2080
2080
3080
3080
5100
4900
4900
4900
8600
8600
8200
8200
ENDCHAR

STARTCHAR O
ENCODING 79
SWIDTH 638 0
DWIDTH 10 0
BBX 9 12 1 0
BITMAP
0E00
3100
2080
4080
4080
8080
8080
8100
8100
8200
4600
3800
ENDCHAR

STARTCHAR P
ENCODING 80
SWIDTH 547 0
DWIDTH 9 0
BBX 9 12 1 0
BITMAP
3F00
2180
2080
2080
4100
7E00
4000
4000
8000
8000
8000
8000
ENDCHAR

STARTCHAR Q
ENCODING 81
SWIDTH 638 0
DWIDTH 10 0
BBX 9 13 1 -1
BITMAP
0E00
3100
2080
4080
4080
8080
8080
8100
9100
8A00
4E00
3C00
0200
ENDCHAR

STARTCHAR R
ENCODING 82
SWIDTH 592 0
DWIDTH 10 0
BBX 9 12 1 0
BITMAP
3F00
2180
2080
2080
4080
4300
7C00
4200
8200
8200
8200
8300
ENDCHAR

STARTCHAR S
ENCODING 83
SWIDTH 547 0
DWIDTH 8 0
BBX 9 12 0 0
BITMAP
0F00
1180
2080
2080
2000
1800
0600
0100
8100
8100
C200
7C00
ENDCHAR

STARTCHAR T
ENCODING 84
SWIDTH 501 0
DWIDTH 8 0
BBX 7 12 2 0
BITMAP
FE
10
10
10
20
20
20
20
40
40
40
40
ENDCHAR

STARTCHAR U
ENCODING 85
SWIDTH 592 0
DWIDTH 10 0
BBX 9 12 1 0
BITMAP
2080
2080
2080
4100
4100
4100
4100
8200
8200
8200
4400
3800
ENDCHAR

STARTCHAR V
ENCODING 86
SWIDTH 547 0
DWIDTH 9 0
BBX 8 12 2 0
BITMAP
81
81
82
82
84
44
48
48
50
50
60
60
ENDCHAR

STARTCHAR W
ENCODING 87
SWIDTH 774 0
DWIDTH 12 0
BBX 13 12 1 0
BITMAP
8218
8210
8610
8620
8A20
8A40
5140
5140
6180
6180
4100
4100
ENDCHAR

STARTCHAR X
ENCODING 88
SWIDTH 547 0
DWIDTH 9 0
BBX 10 12 0 0
BITMAP
30C0
1080
1100
0A00
0A00
0C00
0C00
1400
2400
2200
4200
C300
ENDCHAR

STARTCHAR Y
ENCODING 89
SWIDTH 547 0
DWIDTH 8 0
BBX 9 12 1 0
BITMAP
C180
4100
4200
2400
2400
2800
1000
1000
1000
2000
2000
2000
ENDCHAR

STARTCHAR Z
ENCODING 90
SWIDTH 501 0
DWIDTH 8 0
BBX 9 12 0 0
BITMAP
3F80
0100
0200
0200
0400
0800
0800
1000
2000
2000
4000
FE00
ENDCHAR

STARTCHAR bracketleft
ENCODING 91
SWIDTH 228 0
DWIDTH 4 0
BBX 5 15 0 -3
BITMAP
18
10
10
10
20
20
20
20
40
40
40
40
80
80
C0
ENDCHAR

STARTCHAR backslash
ENCODING 92
SWIDTH 228 0
DWIDTH 4 0
BBX 2 12 2 0
BITMAP
80
80
80
80
80
80
40
40
40
40
40
40
ENDCHAR

STARTCHAR bracketright
ENCODING 93
SWIDTH 228 0
DWIDTH 4 0
BBX 5 15 -1 -3
BITMAP
18
08
08
08
10
10
10
10
20
20
20
20
40
40
C0
ENDCHAR

STARTCHAR asciicircum
ENCODING 94
SWIDTH 385 0
DWIDTH 6 0
BBX 5 6 1 5
BITMAP
10
30
30
48
48
88
ENDCHAR

STARTCHAR underscore
ENCODING 95
SWIDTH 456 0
DWIDTH 7 0
BBX 7 1 -1 -3
BITMAP
FE
ENDCHAR

STARTCHAR quoteleft
ENCODING 96
SWIDTH 182 0
DWIDTH 3 0
BBX 2 4 2 8
BITMAP
40
80
80
C0
ENDCHAR

STARTCHAR a
ENCODING 97
SWIDTH 456 0
DWIDTH 7 0
BBX 6 9 1 0
BITMAP
38
44
44
0C
74
88
88
98
64
ENDCHAR

STARTCHAR b
ENCODING 98
SWIDTH 456 0
DWIDTH 7 0
BBX 6 12 1 0
BITMAP
20
20
20
58
64
44
44
44
84
88
C8
B0
ENDCHAR

STARTCHAR c
ENCODING 99
SWIDTH 410 0
DWIDTH 7 0
BBX 6 9 1 0
BITMAP
38
44
44
40
80
80
88
88
70
ENDCHAR

STARTCHAR d
ENCODING 100
SWIDTH 456 0
DWIDTH 7 0
BBX 7 12 1 0
BITMAP
02
02
02
3A
4C
44
84
84
88
88
98
68
ENDCHAR

STARTCHAR e
ENCODING 101
SWIDTH 456 0
DWIDTH 7 0
BBX 6 9 1 0
BITMAP
38
44
44
44
FC
80
88
88
70
ENDCHAR

STARTCHAR f
ENCODING 102
SWIDTH 228 0
DWIDTH 3 0
BBX 4 12 1 0
BITMAP
30
20
20
F0
40
40
40
40
80
80
80
80
ENDCHAR

STARTCHAR g
ENCODING 103
SWIDTH 456 0
DWIDTH 7 0
BBX 8 12 0 -3
BITMAP
1D
26
22
42
42
44
44
4C
34
08
88
70
ENDCHAR

STARTCHAR h
ENCODING 104
SWIDTH 456 0
DWIDTH 7 0
BBX 6 12 1 0
BITMAP
20
20
20
58
64
44
44
44
88
88
88
88
ENDCHAR

STARTCHAR i
ENCODING 105
SWIDTH 182 0
DWIDTH 3 0
BBX 3 12 1 0
BITMAP
20
20
00
40
40
40
40
40
80
80
80
80
ENDCHAR

STARTCHAR j
ENCODING 106
SWIDTH 182 0
DWIDTH 3 0
BBX 5 15 -1 -3
BITMAP
08
08
00
10
10
10
10
20
20
20
20
20
40
40
80
ENDCHAR

STARTCHAR k
ENCODING 107
SWIDTH 410 0
DWIDTH 6 0
BBX 6 12 1 0
BITMAP
20
20
20
24
48
50
60
50
90
90
88
88
ENDCHAR

STARTCHAR l
ENCODING 108
SWIDTH 182 0
DWIDTH 3 0
BBX 3 12 1 0
BITMAP
20
20
20
20
40
40
40
40
80
80
80
80
ENDCHAR

STARTCHAR m
ENCODING 109
SWIDTH 683 0
DWIDTH 11 0
BBX 10 9 1 0
BITMAP
5980
6640
4440
4440
4440
8880
8880
8880
8880
ENDCHAR

STARTCHAR n
ENCODING 110
SWIDTH 456 0
DWIDTH 7 0
BBX 6 9 1 0
BITMAP
58
64
44
44
44
88
88
88
88
ENDCHAR

STARTCHAR o
ENCODING 111
SWIDTH 456 0
DWIDTH 7 0
BBX 6 9 1 0
BITMAP
38
44
44
44
84
88
88
88
70
ENDCHAR

STARTCHAR p
ENCODING 112
SWIDTH 456 0
DWIDTH 7 0
BBX 7 12 0 -3
BITMAP
2C
32
22
22
22
42
44
64
58
80
80
80
ENDCHAR

STARTCHAR q
ENCODING 113
SWIDTH 456 0
DWIDTH 7 0
BBX 7 12 1 -3
BITMAP
3A
4C
44
84
84
88
88
98
68
10
10
10
ENDCHAR

STARTCHAR r
ENCODING 114
SWIDTH 273 0
DWIDTH 4 0
BBX 4 9 1 0
BITMAP
50
60
40
40
40
80
80
80
80
ENDCHAR

STARTCHAR s
ENCODING 115
SWIDTH 410 0
DWIDTH 7 0
BBX 6 9 1 0
BITMAP
38
44
44
60
18
08
88
88
70
ENDCHAR

STARTCHAR t
ENCODING 116
SWIDTH 228 0
DWIDTH 4 0
BBX 4 11 1 0
BITMAP
20
20
F0
40
40
40
40
80
80
80
60
ENDCHAR

STARTCHAR u
ENCODING 117
SWIDTH 456 0
DWIDTH 7 0
BBX 6 9 1 0
BITMAP
44
44
44
44
88
88
88
98
68
ENDCHAR

STARTCHAR v
ENCODING 118
SWIDTH 410 0
DWIDTH 7 0
BBX 7 9 1 0
BITMAP
C6
44
44
48
28
30
30
20
20
ENDCHAR

STARTCHAR w
ENCODING 119
SWIDTH 592 0
DWIDTH 9 0
BBX 9 9 1 0
BITMAP
8880
8880
9900
9900
5500
6600
6600
4400
4400
ENDCHAR

STARTCHAR x
ENCODING 120
SWIDTH 410 0
DWIDTH 7 0
BBX 8 9 0 0
BITMAP
63
22
14
14
18
28
24
44
C6
ENDCHAR

STARTCHAR y
ENCODING 121
SWIDTH 410 0
DWIDTH 7 0
BBX 8 12 0 -3
BITMAP
63
22
22
24
14
18
18
10
10
20
20
C0
ENDCHAR

STARTCHAR z
ENCODING 122
SWIDTH 410 0
DWIDTH 7 0
BBX 6 9 1 0
BITMAP
7C
08
08
10
20
20
40
80
F8
ENDCHAR

STARTCHAR braceleft
ENCODING 123
SWIDTH 274 0
DWIDTH 4 0
BBX 5 15 0 -3
BITMAP
08
10
10
10
20
20
20
C0
40
40
40
80
80
80
40
ENDCHAR

STARTCHAR bar
ENCODING 124
SWIDTH 213 0
DWIDTH 3 0
BBX 4 15 0 -3
BITMAP
10
10
10
10
20
20
20
20
40
40
40
40
80
80
80
ENDCHAR

STARTCHAR braceright
ENCODING 125
SWIDTH 274 0
DWIDTH 4 0
BBX 5 15 -1 -3
BITMAP
10
08
08
08
10
10
10
18
20
20
20
40
40
40
80
ENDCHAR

STARTCHAR asciitilde
ENCODING 126
SWIDTH 479 0
DWIDTH 8 0
BBX 6 3 2 4
BITMAP
64
B4
98
ENDCHAR

STARTCHAR exclamdown
ENCODING 161
SWIDTH 273 0
DWIDTH 4 0
BBX 3 12 0 -3
BITMAP
20
20
00
20
20
40
40
40
40
80
80
80
ENDCHAR

STARTCHAR cent
ENCODING 162
SWIDTH 456 0
DWIDTH 7 0
BBX 7 13 1 -2
BITMAP
04
04
1C
2A
4A
50
90
90
A4
A4
78
40
40
ENDCHAR

STARTCHAR sterling
ENCODING 163
SWIDTH 456 0
DWIDTH 7 0
BBX 8 11 0 0
BITMAP
0E
11
21
20
10
7C
10
10
20
72
9C
ENDCHAR

STARTCHAR currency
ENCODING 164
SWIDTH 456 0
DWIDTH 7 0
BBX 9 7 0 2
BITMAP
3180
1F00
2200
2200
2200
7C00
C600
ENDCHAR

STARTCHAR yen
ENCODING 165
SWIDTH 456 0
DWIDTH 7 0
BBX 8 11 1 0
BITMAP
C3
42
24
24
18
7C
10
F8
20
20
20
ENDCHAR

STARTCHAR brokenbar
ENCODING 166
SWIDTH 213 0
DWIDTH 3 0
BBX 4 15 0 -3
BITMAP
10
10
10
20
20
20
00
00
00
40
40
40
80
80
80
ENDCHAR

STARTCHAR section
ENCODING 167
SWIDTH 456 0
DWIDTH 7 0
BBX 8 15 0 -3
BITMAP
0E
19
11
10
18
24
42
42
42
24
18
08
88
98
70
ENDCHAR

STARTCHAR dieresis
ENCODING 168
SWIDTH 273 0
DWIDTH 4 0
BBX 3 2 2 10
BITMAP
A0
A0
ENDCHAR

STARTCHAR copyright
ENCODING 169
SWIDTH 604 0
DWIDTH 10 0
BBX 10 12 1 0
BITMAP
0F00
3080
2640
4940
5140
9040
A040
A280
A680
9900
4300
3C00
ENDCHAR

STARTCHAR ordfeminine
ENCODING 170
SWIDTH 303 0
DWIDTH 5 0
BBX 6 8 0 4
BITMAP
1C
24
1C
28
48
74
00
F8
ENDCHAR

STARTCHAR guillemotleft
ENCODING 171
SWIDTH 456 0
DWIDTH 7 0
BBX 7 6 0 1
BITMAP
12
24
48
90
48
24
ENDCHAR

STARTCHAR logicalnot
ENCODING 172
SWIDTH 479 0
DWIDTH 8 0
BBX 8 4 0 2
BITMAP
7F
01
02
02
ENDCHAR

STARTCHAR hyphen
ENCODING 173
SWIDTH 273 0
DWIDTH 4 0
BBX 3 1 1 4
BITMAP
E0
ENDCHAR

STARTCHAR registered
ENCODING 174
SWIDTH 604 0
DWIDTH 10 0
BBX 10 12 1 0
BITMAP
0F00
3080
2E40
4940
4940
9140
9E40
9480
A480
A500
4300
3C00
ENDCHAR

STARTCHAR macron
ENCODING 175
SWIDTH 273 0
DWIDTH 4 0
BBX 4 1 1 10
BITMAP
F0
ENDCHAR

STARTCHAR degree
ENCODING 176
SWIDTH 328 0
DWIDTH 5 0
BBX 4 5 2 7
BITMAP
70
90
90
90
E0
ENDCHAR

STARTCHAR plusminus
ENCODING 177
SWIDTH 479 0
DWIDTH 8 0
BBX 7 9 1 0
BITMAP
08
08
08
7E
10
10
10
00
FC
ENDCHAR

STARTCHAR twosuperior
ENCODING 178
SWIDTH 273 0
DWIDTH 4 0
BBX 5 7 1 4
BITMAP
30
48
48
10
60
80
F0
ENDCHAR

STARTCHAR threesuperior
ENCODING 179
SWIDTH 273 0
DWIDTH 4 0
BBX 5 7 1 4
BITMAP
30
48
18
60
10
90
60
ENDCHAR

STARTCHAR acute
ENCODING 180
SWIDTH 273 0
DWIDTH 4 0
BBX 2 2 3 10
BITMAP
40
80
ENDCHAR

STARTCHAR mu
ENCODING 181
SWIDTH 456 0
DWIDTH 7 0
BBX 7 12 0 -3
BITMAP
22
22
22
22
44
44
44
4C
74
80
80
80
ENDCHAR

STARTCHAR paragraph
ENCODING 182
SWIDTH 440 0
DWIDTH 7 0
BBX 8 15 1 -3
BITMAP
1F
7A
7A
FA
F4
F4
74
14
28
28
28
28
50
50
50
ENDCHAR

STARTCHAR periodcentered
ENCODING 183
SWIDTH 228 0
DWIDTH 4 0
BBX 2 2 2 5
BITMAP
C0
C0
ENDCHAR

STARTCHAR cedilla
ENCODING 184
SWIDTH 273 0
DWIDTH 4 0
BBX 3 3 -1 -3
BITMAP
40
20
C0
ENDCHAR

STARTCHAR onesuperior
ENCODING 185
SWIDTH 273 0
DWIDTH 4 0
BBX 3 7 2 4
BITMAP
20
E0
20
20
40
40
40
ENDCHAR

STARTCHAR ordmasculine
ENCODING 186
SWIDTH 299 0
DWIDTH 5 0
BBX 6 8 0 4
BITMAP
18
24
44
44
48
30
00
F8
ENDCHAR

STARTCHAR guillemotright
ENCODING 187
SWIDTH 456 0
DWIDTH 7 0
BBX 7 6 0 1
BITMAP
48
24
12
24
48
90
ENDCHAR

STARTCHAR onequarter
ENCODING 188
SWIDTH 684 0
DWIDTH 11 0
BBX 9 11 1 0
BITMAP
2080
6100
2200
2200
4480
4980
5280
2500
2900
4F80
8100
ENDCHAR

STARTCHAR onehalf
ENCODING 189
SWIDTH 684 0
DWIDTH 11 0
BBX 10 11 1 0
BITMAP
2080
6100
2200
2200
4580
4A40
5240
2080
2300
4400
8780
ENDCHAR

STARTCHAR threequarters
ENCODING 190
SWIDTH 684 0
DWIDTH 11 0
BBX 10 11 1 0
BITMAP
3040
4880
1900
6100
1240
94C0
6940
1280
1480
27C0
4080
ENDCHAR

STARTCHAR questiondown
ENCODING 191
SWIDTH 501 0
DWIDTH 7 0
BBX 6 12 0 -3
BITMAP
04
04
00
08
08
10
20
40
84
84
C8
70
ENDCHAR

STARTCHAR Agrave
ENCODING 192
SWIDTH 547 0
DWIDTH 9 0
BBX 8 14 0 0
BITMAP
04
02
00
06
06
0A
0A
12
12
21
7F
41
81
81
ENDCHAR

STARTCHAR Aacute
ENCODING 193
SWIDTH 547 0
DWIDTH 9 0
BBX 8 14 0 0
BITMAP
01
02
00
06
06
0A
0A
12
12
21
7F
41
81
81
ENDCHAR

STARTCHAR Acircumflex
ENCODING 194
SWIDTH 547 0
DWIDTH 9 0
BBX 8 14 0 0
BITMAP
02
05
00
06
06
0A
0A
12
12
21
7F
41
81
81
ENDCHAR

STARTCHAR Atilde
ENCODING 195
SWIDTH 547 0
DWIDTH 9 0
BBX 9 14 0 0
BITMAP
0680
0B00
0000
0600
0600
0A00
0A00
1200
1200
2100
7F00
4100
8100
8100
ENDCHAR

STARTCHAR Adieresis
ENCODING 196
SWIDTH 547 0
DWIDTH 9 0
BBX 8 14 0 0
BITMAP
05
05
00
06
06
0A
0A
12
12
21
7F
41
81
81
ENDCHAR

STARTCHAR Aring
ENCODING 197
SWIDTH 547 0
DWIDTH 9 0
BBX 8 14 0 0
BITMAP
03
05
06
06
06
0A
0A
12
12
21
7F
41
81
81
ENDCHAR

STARTCHAR AE
ENCODING 198
SWIDTH 820 0
DWIDTH 13 0
BBX 14 12 0 0
BITMAP
03FC
0280
0480
0480
0900
11F8
1100
3F00
4200
4200
8200
83F0
ENDCHAR

STARTCHAR Ccedilla
ENCODING 199
SWIDTH 592 0
DWIDTH 9 0
BBX 8 15 1 -3
BITMAP
0E
31
21
41
40
80
80
80
82
82
44
38
20
10
60
ENDCHAR

STARTCHAR Egrave
ENCODING 200
SWIDTH 547 0
DWIDTH 9 0
BBX 9 14 1 0
BITMAP
0800
0400
0000
3F80
2000
2000
2000
4000
7E00
4000
8000
8000
8000
FE00
ENDCHAR

STARTCHAR Eacute
ENCODING 201
SWIDTH 547 0
DWIDTH 9 0
BBX 9 14 1 0
BITMAP
0200
0400
0000
3F80
2000
2000
2000
4000
7E00
4000
8000
8000
8000
FE00
ENDCHAR

STARTCHAR Ecircumflex
ENCODING 202
SWIDTH 547 0
DWIDTH 9 0
BBX 9 14 1 0
BITMAP
0400
0A00
0000
3F80
2000
2000
2000
4000
7E00
4000
8000
8000
8000
FE00
ENDCHAR

STARTCHAR Edieresis
ENCODING 203
SWIDTH 547 0
DWIDTH 9 0
BBX 9 14 1 0
BITMAP
0A00
0A00
0000
3F80
2000
2000
2000
4000
7E00
4000
8000
8000
8000
FE00
ENDCHAR

STARTCHAR Igrave
ENCODING 204
SWIDTH 228 0
DWIDTH 4 0
BBX 4 14 1 0
BITMAP
20
10
00
20
20
20
20
40
40
40
80
80
80
80
ENDCHAR

STARTCHAR Iacute
ENCODING 205
SWIDTH 228 0
DWIDTH 4 0
BBX 4 14 1 0
BITMAP
10
20
00
20
20
20
20
40
40
40
80
80
80
80
ENDCHAR

STARTCHAR Icircumflex
ENCODING 206
SWIDTH 228 0
DWIDTH 4 0
BBX 4 14 1 0
BITMAP
20
50
00
20
20
20
20
40
40
40
80
80
80
80
ENDCHAR

STARTCHAR Idieresis
ENCODING 207
SWIDTH 228 0
DWIDTH 4 0
BBX 4 14 1 0
BITMAP
50
50
00
20
20
20
20
40
40
40
80
80
80
80
ENDCHAR

STARTCHAR Eth
ENCODING 208
SWIDTH 592 0
DWIDTH 10 0
BBX 9 12 1 0
BITMAP
3E00
2100
2080
2080
4080
F080
4080
4100
8100
8200
8600
F800
ENDCHAR

STARTCHAR Ntilde
ENCODING 209
SWIDTH 592 0
DWIDTH 10 0
BBX 9 14 1 0
BITMAP
0D00
1600
0000
2080
2080
3080
3100
4900
4900
4900
4600
8600
8200
8200
ENDCHAR

STARTCHAR Ograve
ENCODING 210
SWIDTH 638 0
DWIDTH 10 0
BBX 9 14 1 0
BITMAP
0400
0200
0000
0E00
3100
2080
4080
4080
8080
8100
8100
8200
4600
3800
ENDCHAR

STARTCHAR Oacute
ENCODING 211
SWIDTH 638 0
DWIDTH 10 0
BBX 9 14 1 0
BITMAP
0200
0400
0000
0E00
3100
2080
4080
4080
8080
8100
8100
8200
4600
3800
ENDCHAR

STARTCHAR Ocircumflex
ENCODING 212
SWIDTH 638 0
DWIDTH 10 0
BBX 9 14 1 0
BITMAP
0400
0A00
0000
0E00
3100
2080
4080
4080
8080
8100
8100
8200
4600
3800
ENDCHAR

STARTCHAR Otilde
ENCODING 213
SWIDTH 638 0
DWIDTH 10 0
BBX 9 14 1 0
BITMAP
0680
0B00
0000
0E00
3100
2080
4080
4080
8080
8100
8100
8200
4600
3800
ENDCHAR

STARTCHAR Odieresis
ENCODING 214
SWIDTH 638 0
DWIDTH 10 0
BBX 9 14 1 0
BITMAP
0A00
0A00
0000
0E00
3100
2080
4080
4080
8080
8100
8100
8200
4600
3800
ENDCHAR

STARTCHAR multiply
ENCODING 215
SWIDTH 479 0
DWIDTH 8 0
BBX 7 8 1 0
BITMAP
42
24
28
10
10
28
48
84
ENDCHAR

STARTCHAR Oslash
ENCODING 216
SWIDTH 638 0
DWIDTH 10 0
BBX 11 12 0 0
BITMAP
0720
18C0
10C0
2140
2240
4440
4440
4880
5080
6100
6300
9C00
ENDCHAR

STARTCHAR Ugrave
ENCODING 217
SWIDTH 592 0
DWIDTH 10 0
BBX 9 14 1 0
BITMAP
0800
0400
0000
2080
2080
2080
4100
4100
4100
8200
8200
8200
8400
7800
ENDCHAR

STARTCHAR Uacute
ENCODING 218
SWIDTH 592 0
DWIDTH 10 0
BBX 9 14 1 0
BITMAP
0200
0400
0000
2080
2080
2080
4100
4100
4100
8200
8200
8200
8400
7800
ENDCHAR

STARTCHAR Ucircumflex
ENCODING 219
SWIDTH 592 0
DWIDTH 10 0
BBX 9 14 1 0
BITMAP
0400
0A00
0000
2080
2080
2080
4100
4100
4100
8200
8200
8200
8400
7800
ENDCHAR

STARTCHAR Udieresis
ENCODING 220
SWIDTH 592 0
DWIDTH 10 0
BBX 9 14 1 0
BITMAP
0A00
0A00
0000
2080
2080
2080
4100
4100
4100
8200
8200
8200
8400
7800
ENDCHAR

STARTCHAR Yacute
ENCODING 221
SWIDTH 547 0
DWIDTH 9 0
BBX 9 14 1 0
BITMAP
0400
0800
0000
C180
4100
4200
2400
2800
1000
1000
1000
2000
2000
2000
ENDCHAR

STARTCHAR Thorn
ENCODING 222
SWIDTH 547 0
DWIDTH 9 0
BBX 8 12 1 0
BITMAP
20
20
20
3E
43
41
41
42
FC
80
80
80
ENDCHAR

STARTCHAR germandbls
ENCODING 223
SWIDTH 501 0
DWIDTH 8 0
BBX 7 12 2 0
BITMAP
1C
26
22
22
44
58
48
44
84
84
88
B0
ENDCHAR

STARTCHAR agrave
ENCODING 224
SWIDTH 456 0
DWIDTH 7 0
BBX 6 12 1 0
BITMAP
20
10
00
38
44
44
0C
74
88
88
98
64
ENDCHAR

STARTCHAR aacute
ENCODING 225
SWIDTH 456 0
DWIDTH 7 0
BBX 6 12 1 0
BITMAP
08
10
00
38
44
44
0C
74
88
88
98
64
ENDCHAR

STARTCHAR acircumflex
ENCODING 226
SWIDTH 456 0
DWIDTH 7 0
BBX 6 12 1 0
BITMAP
10
28
00
38
44
44
0C
74
88
88
98
64
ENDCHAR

STARTCHAR atilde
ENCODING 227
SWIDTH 456 0
DWIDTH 7 0
BBX 7 12 1 0
BITMAP
1A
2C
00
38
44
44
0C
74
88
88
98
64
ENDCHAR

STARTCHAR adieresis
ENCODING 228
SWIDTH 456 0
DWIDTH 7 0
BBX 6 12 1 0
BITMAP
28
28
00
38
44
44
0C
74
88
88
98
64
ENDCHAR

STARTCHAR aring
ENCODING 229
SWIDTH 456 0
DWIDTH 7 0
BBX 6 12 1 0
BITMAP
0C
14
18
38
44
44
0C
74
88
88
98
64
ENDCHAR

STARTCHAR ae
ENCODING 230
SWIDTH 729 0
DWIDTH 11 0
BBX 10 9 1 0
BITMAP
3B80
4440
4440
0C40
77C0
8800
8880
9880
6700
ENDCHAR

STARTCHAR ccedilla
ENCODING 231
SWIDTH 410 0
DWIDTH 7 0
BBX 6 12 1 -3
BITMAP
38
44
44
40
80
80
88
88
70
40
20
C0
ENDCHAR

STARTCHAR egrave
ENCODING 232
SWIDTH 456 0
DWIDTH 7 0
BBX 6 12 1 0
BITMAP
20
10
00
38
44
44
44
FC
80
88
88
70
ENDCHAR

STARTCHAR eacute
ENCODING 233
SWIDTH 456 0
DWIDTH 7 0
BBX 6 12 1 0
BITMAP
08
10
00
38
44
44
44
FC
80
88
88
70
ENDCHAR

STARTCHAR ecircumflex
ENCODING 234
SWIDTH 456 0
DWIDTH 7 0
BBX 6 12 1 0
BITMAP
10
28
00
38
44
44
44
FC
80
88
88
70
ENDCHAR

STARTCHAR edieresis
ENCODING 235
SWIDTH 456 0
DWIDTH 7 0
BBX 6 12 1 0
BITMAP
28
28
00
38
44
44
44
FC
80
88
88
70
ENDCHAR

STARTCHAR igrave
ENCODING 236
SWIDTH 228 0
DWIDTH 3 0
BBX 3 12 1 0
BITMAP
40
20
00
40
40
40
40
40
80
80
80
80
ENDCHAR

STARTCHAR iacute
ENCODING 237
SWIDTH 228 0
DWIDTH 3 0
BBX 3 12 1 0
BITMAP
20
40
00
40
40
40
40
40
80
80
80
80
ENDCHAR

STARTCHAR icircumflex
ENCODING 238
SWIDTH 228 0
DWIDTH 3 0
BBX 3 12 1 0
BITMAP
40
A0
00
40
40
40
40
40
80
80
80
80
ENDCHAR

STARTCHAR idieresis
ENCODING 239
SWIDTH 228 0
DWIDTH 3 0
BBX 3 12 1 0
BITMAP
A0
A0
00
40
40
40
40
40
80
80
80
80
ENDCHAR

STARTCHAR eth
ENCODING 240
SWIDTH 456 0
DWIDTH 7 0
BBX 7 12 1 0
BITMAP
36
18
68
3C
44
44
44
84
88
88
88
70
ENDCHAR

STARTCHAR ntilde
ENCODING 241
SWIDTH 456 0
DWIDTH 7 0
BBX 6 12 1 0
BITMAP
34
58
00
58
64
44
44
44
88
88
88
88
ENDCHAR

STARTCHAR ograve
ENCODING 242
SWIDTH 456 0
DWIDTH 7 0
BBX 6 12 1 0
BITMAP
20
10
00
38
44
44
44
84
88
88
88
70
ENDCHAR

STARTCHAR oacute
ENCODING 243
SWIDTH 456 0
DWIDTH 7 0
BBX 6 12 1 0
BITMAP
08
10
00
38
44
44
44
84
88
88
88
70
ENDCHAR

STARTCHAR ocircumflex
ENCODING 244
SWIDTH 456 0
DWIDTH 7 0
BBX 6 12 1 0
BITMAP
10
28
00
38
44
44
44
84
88
88
88
70
ENDCHAR

STARTCHAR otilde
ENCODING 245
SWIDTH 456 0
DWIDTH 7 0
BBX 7 12 1 0
BITMAP
1A
2C
00
38
44
44
44
84
88
88
88
70
ENDCHAR

STARTCHAR odieresis
ENCODING 246
SWIDTH 456 0
DWIDTH 7 0
BBX 6 12 1 0
BITMAP
28
28
00
38
44
44
44
84
88
88
88
70
ENDCHAR

STARTCHAR divide
ENCODING 247
SWIDTH 479 0
DWIDTH 8 0
BBX 6 7 1 0
BITMAP
10
10
00
FC
00
20
20
ENDCHAR

STARTCHAR oslash
ENCODING 248
SWIDTH 501 0
DWIDTH 7 0
BBX 8 9 0 0
BITMAP
1D
22
26
2A
52
54
64
44
B8
ENDCHAR

STARTCHAR ugrave
ENCODING 249
SWIDTH 456 0
DWIDTH 7 0
BBX 6 12 1 0
BITMAP
20
10
00
44
44
44
44
88
88
88
98
68
ENDCHAR

STARTCHAR uacute
ENCODING 250
SWIDTH 456 0
DWIDTH 7 0
BBX 6 12 1 0
BITMAP
08
10
00
44
44
44
44
88
88
88
98
68
ENDCHAR

STARTCHAR ucircumflex
ENCODING 251
SWIDTH 456 0
DWIDTH 7 0
BBX 6 12 1 0
BITMAP
10
28
00
44
44
44
44
88
88
88
98
68
ENDCHAR

STARTCHAR udieresis
ENCODING 252
SWIDTH 456 0
DWIDTH 7 0
BBX 6 12 1 0
BITMAP
28
28
00
44
44
44
44
88
88
88
98
68
ENDCHAR

STARTCHAR yacute
ENCODING 253
SWIDTH 410 0
DWIDTH 7 0
BBX 8 15 0 -3
BITMAP
04
08
00
63
22
22
24
14
18
18
10
10
20
20
C0
ENDCHAR

STARTCHAR thorn
ENCODING 254
SWIDTH 456 0
DWIDTH 7 0
BBX 7 15 0 -3
BITMAP
10
10
10
2C
32
22
22
22
42
44
64
58
80
80
80
ENDCHAR

STARTCHAR ydieresis
ENCODING 255
SWIDTH 410 0
DWIDTH 7 0
BBX 8 15 0 -3
BITMAP
14
14
00
63
22
22
24
14
18
18
10
10
20
20
C0
ENDCHAR
ENDFONT
